# Blender 4.5.3 LTS
# www.blender.org
o Circle
v 0.000000 -0.500000 0.444430
v -0.195090 -0.500000 0.425215
v -0.382683 -0.500000 0.368309
v -0.555570 -0.500000 0.275899
v -0.647674 -0.500000 0.151536
v -0.195090 -0.500000 -0.425215
v -0.382684 -0.500000 -0.368309
v -0.555570 -0.500000 -0.275899
v -0.647674 -0.500000 -0.151536
v -0.700000 -0.500000 0.000000
v 0.924072 -0.500000 -0.151537
v 0.648510 -0.500000 -0.275900
v 0.419200 -0.500000 -0.368309
v 0.197762 -0.500000 -0.425215
v 0.000000 -0.500000 -0.444430
v 1.200000 -0.500000 0.000000
v 0.924073 -0.500000 0.151536
v 0.648510 -0.500000 0.275899
v 0.419200 -0.500000 0.368309
v 0.197762 -0.500000 0.425215
v -0.200000 -0.500000 0.000000
v 0.224139 -0.500000 0.000000
v -0.321789 -0.500000 0.245539
v -0.260894 -0.500000 0.122770
v -0.321789 -0.500000 -0.245540
v -0.260895 -0.500000 -0.122770
v 0.362231 -0.500000 0.245539
v 0.296616 -0.500000 0.122770
v 0.362231 -0.500000 -0.245540
v 0.296616 -0.500000 -0.122770
v -0.100000 -0.500000 0.000000
v 0.000000 -0.500000 0.000000
v 0.106276 -0.500000 0.000000
v 0.136025 -0.500000 -0.122770
v -0.127455 -0.500000 -0.122770
v 0.000000 -0.500000 -0.122770
v 0.162751 -0.500000 -0.245540
v -0.154910 -0.500000 -0.245540
v 0.000000 -0.500000 -0.245540
v 0.000000 -0.500000 0.245539
v 0.711346 -0.500000 0.000000
v -0.552693 -0.500000 0.000000
v 0.529046 -0.500000 0.121915
v -0.441753 -0.500000 0.121915
v -0.154910 -0.500000 0.245539
v 0.162751 -0.500000 0.245539
v 0.000000 -0.500000 0.122770
v -0.441753 -0.500000 -0.121915
v 0.416854 -0.500000 0.000000
v -0.127455 -0.500000 0.122770
v 0.136025 -0.500000 0.122770
v -0.351640 -0.500000 0.000000
v 0.529046 -0.500000 -0.121915
vn -0.0000 1.0000 -0.0000
s 1
f 4//1 44//1 42//1 5//1
f 1//1 20//1 46//1 40//1
f 13//1 14//1 37//1 29//1
f 11//1 41//1 17//1 16//1
f 32//1 31//1 50//1 47//1
f 15//1 6//1 38//1 39//1
f 20//1 19//1 27//1 46//1
f 14//1 15//1 39//1 37//1
f 6//1 7//1 25//1 38//1
f 31//1 21//1 24//1 50//1
f 36//1 32//1 33//1 34//1
f 26//1 21//1 31//1 35//1
f 26//1 52//1 24//1 21//1
f 35//1 31//1 32//1 36//1
f 34//1 33//1 22//1 30//1
f 30//1 22//1 28//1 49//1
f 39//1 36//1 34//1 37//1
f 25//1 26//1 35//1 38//1
f 25//1 7//1 8//1 48//1
f 38//1 35//1 36//1 39//1
f 37//1 34//1 30//1 29//1
f 29//1 30//1 49//1 53//1
f 43//1 18//1 17//1 41//1
f 45//1 2//1 1//1 40//1
f 23//1 3//1 2//1 45//1
f 27//1 28//1 51//1 46//1
f 27//1 19//1 18//1 43//1
f 44//1 52//1 48//1 42//1
f 9//1 10//1 5//1 42//1
f 46//1 51//1 47//1 40//1
f 44//1 4//1 3//1 23//1
f 41//1 11//1 12//1 53//1
f 49//1 43//1 41//1 53//1
f 8//1 9//1 42//1 48//1
f 12//1 13//1 29//1 53//1
f 50//1 45//1 40//1 47//1
f 28//1 27//1 43//1 49//1
f 28//1 22//1 33//1 51//1
f 52//1 26//1 25//1 48//1
f 24//1 23//1 45//1 50//1
f 52//1 44//1 23//1 24//1
f 51//1 33//1 32//1 47//1
