# Generated by Visualization Toolkit
mtllib targetEdges0.mtl
v -0.5555700063705444 -0.5 0.2758989930152893
v -0.647674024105072 -0.5 0.1515360027551651
v -0.38268300890922546 -0.5 0.36830899119377136
v -0.699999988079071 -0.5 0
v -0.647674024105072 -0.5 -0.1515360027551651
v -0.5555700063705444 -0.5 -0.2758989930152893
v 0.19776199758052826 -0.5 0.4252150058746338
v 0 -0.5 0.44442999362945557
v -0.19508999586105347 -0.5 0.4252150058746338
v 0.41920000314712524 -0.5 0.36830899119377136
v 0.19776199758052826 -0.5 -0.4252150058746338
v 0.41920000314712524 -0.5 -0.36830899119377136
v 0.6485099792480469 -0.5 -0.2759000062942505
v 0 -0.5 -0.44442999362945557
v 0.9240720272064209 -0.5 -0.1515370011329651
v 1.2000000476837158 -0.5 0
v 0.9240729808807373 -0.5 0.1515360027551651
v 1.2000000476837158 -0.30000001192092896 0
v 0.6485099792480469 -0.5 0.2758989930152893
v -0.19508999586105347 -0.5 -0.4252150058746338
v -0.38268399238586426 -0.5 -0.36830899119377136
v 1.2000000476837158 -0.10000000149011612 0
v 1.2000000476837158 0.10000000149011612 0
v 1.2000000476837158 0.30000001192092896 0
v -0.5555700063705444 0.5 0.2758989930152893
v -0.647674024105072 0.5 0.1515360027551651
v -0.38268300890922546 0.5 0.36830899119377136
v -0.699999988079071 0.5 0
v 0.19776199758052826 0.5 0.4252150058746338
v 0 0.5 0.44442999362945557
v -0.19508999586105347 0.5 0.4252150058746338
v 0.41920000314712524 0.5 0.36830899119377136
v 0.19776199758052826 0.5 -0.4252150058746338
v 0.41920000314712524 0.5 -0.36830899119377136
v 0.6485099792480469 0.5 -0.2759000062942505
v 0 0.5 -0.44442999362945557
v 0.9240720272064209 0.5 -0.1515370011329651
v 1.2000000476837158 0.5 0
v 0.9240729808807373 0.5 0.1515360027551651
v 0.6485099792480469 0.5 0.2758989930152893
v -0.19508999586105347 0.5 -0.4252150058746338
v -0.38268399238586426 0.5 -0.36830899119377136
v -0.5555700063705444 0.5 -0.2758989930152893
v -0.647674024105072 0.5 -0.1515360027551651
usemtl targetEdges0
l 1 2
l 1 3
l 2 4
l 4 5
l 5 6
l 7 8
l 9 8
l 7 10
l 11 12
l 13 12
l 11 14
l 15 16
l 16 17
l 18 16
l 15 13
l 17 19
l 20 14
l 20 21
l 10 19
l 21 6
l 9 3
l 22 18
l 23 22
l 24 23
l 25 26
l 27 25
l 26 28
l 29 30
l 30 31
l 32 29
l 33 34
l 34 35
l 36 33
l 37 38
l 38 24
l 35 37
l 38 39
l 39 40
l 41 36
l 42 41
l 40 32
l 43 42
l 44 43
l 31 27
l 28 44
