# Generated by Visualization Toolkit
mtllib targetSurfaces0.mtl
v -0.5555700063705444 -0.5 0.2758989930152893
v -0.44175300002098083 -0.5 0.12191499769687653
v -0.5526930093765259 -0.5 0
v -0.647674024105072 -0.5 0.1515360027551651
v 0 -0.5 0.44442999362945557
v 0.19776199758052826 -0.5 0.4252150058746338
v 0.1627510040998459 -0.5 0.24553899466991425
v 0 -0.5 0.24553899466991425
v 0.41920000314712524 -0.5 -0.36830899119377136
v 0.19776199758052826 -0.5 -0.4252150058746338
v 0.1627510040998459 -0.5 -0.24553999304771423
v 0.36223098635673523 -0.5 -0.24553999304771423
v 0.9240720272064209 -0.5 -0.1515370011329651
v 0.7113459706306458 -0.5 0
v 0.9240729808807373 -0.5 0.1515360027551651
v 1.2000000476837158 -0.5 0
v 0 -0.5 0
v -0.10000000149011612 -0.5 0
v -0.1274549961090088 -0.5 0.12276999652385712
v 0 -0.5 0.12276999652385712
v 0 -0.5 -0.44442999362945557
v -0.19508999586105347 -0.5 -0.4252150058746338
v -0.15490999817848206 -0.5 -0.24553999304771423
v 0 -0.5 -0.24553999304771423
v 0.41920000314712524 -0.5 0.36830899119377136
v 0.36223098635673523 -0.5 0.24553899466991425
v -0.38268399238586426 -0.5 -0.36830899119377136
v -0.3217889964580536 -0.5 -0.24553999304771423
v -0.20000000298023224 -0.5 0
v -0.2608940005302429 -0.5 0.12276999652385712
v 0 -0.5 -0.12276999652385712
v 0.1062759980559349 -0.5 0
v 0.13602499663829803 -0.5 -0.12276999652385712
v -0.2608950138092041 -0.5 -0.12276999652385712
v -0.1274549961090088 -0.5 -0.12276999652385712
v -0.351639986038208 -0.5 0
v 0.224139004945755 -0.5 0
v 0.29661598801612854 -0.5 -0.12276999652385712
v 0.29661598801612854 -0.5 0.12276999652385712
v 0.41685399413108826 -0.5 0
v -0.5555700063705444 -0.5 -0.2758989930152893
v -0.44175300002098083 -0.5 -0.12191499769687653
v 0.5290459990501404 -0.5 -0.12191499769687653
v 0.5290459990501404 -0.5 0.12191499769687653
v 0.6485099792480469 -0.5 0.2758989930152893
v -0.15490999817848206 -0.5 0.24553899466991425
v -0.19508999586105347 -0.5 0.4252150058746338
v -0.3217889964580536 -0.5 0.24553899466991425
v -0.38268300890922546 -0.5 0.36830899119377136
v 0.13602499663829803 -0.5 0.12276999652385712
v -0.647674024105072 -0.5 -0.1515360027551651
v -0.699999988079071 -0.5 0
v 0.6485099792480469 -0.5 -0.2759000062942505
v -0.5555700063705444 -0.30000001192092896 0.2758989930152893
v -0.647674024105072 -0.30000001192092896 0.1515360027551651
v 0 -0.30000001192092896 0.44442999362945557
v 0.19776199758052826 -0.30000001192092896 0.4252150058746338
v 0.41920000314712524 -0.30000001192092896 -0.36830899119377136
v 0.19776199758052826 -0.30000001192092896 -0.4252150058746338
v 0.9240720272064209 -0.30000001192092896 -0.1515370011329651
v 0.9240729808807373 -0.30000001192092896 0.1515360027551651
v 1.2000000476837158 -0.30000001192092896 0
v 0 -0.30000001192092896 -0.44442999362945557
v -0.19508999586105347 -0.30000001192092896 -0.4252150058746338
v 0.41920000314712524 -0.30000001192092896 0.36830899119377136
v -0.38268399238586426 -0.30000001192092896 -0.36830899119377136
v -0.5555700063705444 -0.30000001192092896 -0.2758989930152893
v 0.6485099792480469 -0.30000001192092896 0.2758989930152893
v -0.19508999586105347 -0.30000001192092896 0.4252150058746338
v -0.38268300890922546 -0.30000001192092896 0.36830899119377136
v -0.647674024105072 -0.30000001192092896 -0.1515360027551651
v -0.699999988079071 -0.30000001192092896 0
v 0.6485099792480469 -0.30000001192092896 -0.2759000062942505
v -0.5555700063705444 -0.10000000149011612 0.2758989930152893
v -0.647674024105072 -0.10000000149011612 0.1515360027551651
v 0 -0.10000000149011612 0.44442999362945557
v 0.19776199758052826 -0.10000000149011612 0.4252150058746338
v 0.41920000314712524 -0.10000000149011612 -0.36830899119377136
v 0.19776199758052826 -0.10000000149011612 -0.4252150058746338
v 0.9240720272064209 -0.10000000149011612 -0.1515370011329651
v 0.9240729808807373 -0.10000000149011612 0.1515360027551651
v 1.2000000476837158 -0.10000000149011612 0
v 0 -0.10000000149011612 -0.44442999362945557
v -0.19508999586105347 -0.10000000149011612 -0.4252150058746338
v 0.41920000314712524 -0.10000000149011612 0.36830899119377136
v -0.38268399238586426 -0.10000000149011612 -0.36830899119377136
v -0.5555700063705444 -0.10000000149011612 -0.2758989930152893
v 0.6485099792480469 -0.10000000149011612 0.2758989930152893
v -0.19508999586105347 -0.10000000149011612 0.4252150058746338
v -0.38268300890922546 -0.10000000149011612 0.36830899119377136
v -0.647674024105072 -0.10000000149011612 -0.1515360027551651
v -0.699999988079071 -0.10000000149011612 0
v 0.6485099792480469 -0.10000000149011612 -0.2759000062942505
v -0.5555700063705444 0.10000000149011612 0.2758989930152893
v -0.647674024105072 0.10000000149011612 0.1515360027551651
v 0 0.10000000149011612 0.44442999362945557
v 0.19776199758052826 0.10000000149011612 0.4252150058746338
v 0.41920000314712524 0.10000000149011612 -0.36830899119377136
v 0.19776199758052826 0.10000000149011612 -0.4252150058746338
v 0.9240720272064209 0.10000000149011612 -0.1515370011329651
v 0.9240729808807373 0.10000000149011612 0.1515360027551651
v 1.2000000476837158 0.10000000149011612 0
v 0 0.10000000149011612 -0.44442999362945557
v -0.19508999586105347 0.10000000149011612 -0.4252150058746338
v 0.41920000314712524 0.10000000149011612 0.36830899119377136
v -0.38268399238586426 0.10000000149011612 -0.36830899119377136
v -0.5555700063705444 0.10000000149011612 -0.2758989930152893
v 0.6485099792480469 0.10000000149011612 0.2758989930152893
v -0.19508999586105347 0.10000000149011612 0.4252150058746338
v -0.38268300890922546 0.10000000149011612 0.36830899119377136
v -0.647674024105072 0.10000000149011612 -0.1515360027551651
v -0.699999988079071 0.10000000149011612 0
v 0.6485099792480469 0.10000000149011612 -0.2759000062942505
v -0.5555700063705444 0.30000001192092896 0.2758989930152893
v -0.647674024105072 0.30000001192092896 0.1515360027551651
v 0 0.30000001192092896 0.44442999362945557
v 0.19776199758052826 0.30000001192092896 0.4252150058746338
v 0.41920000314712524 0.30000001192092896 -0.36830899119377136
v 0.19776199758052826 0.30000001192092896 -0.4252150058746338
v 0.9240720272064209 0.30000001192092896 -0.1515370011329651
v 0.9240729808807373 0.30000001192092896 0.1515360027551651
v 1.2000000476837158 0.30000001192092896 0
v 0 0.30000001192092896 -0.44442999362945557
v -0.19508999586105347 0.30000001192092896 -0.4252150058746338
v 0.41920000314712524 0.30000001192092896 0.36830899119377136
v -0.38268399238586426 0.30000001192092896 -0.36830899119377136
v -0.5555700063705444 0.30000001192092896 -0.2758989930152893
v 0.6485099792480469 0.30000001192092896 0.2758989930152893
v -0.19508999586105347 0.30000001192092896 0.4252150058746338
v -0.38268300890922546 0.30000001192092896 0.36830899119377136
v -0.647674024105072 0.30000001192092896 -0.1515360027551651
v -0.699999988079071 0.30000001192092896 0
v 0.6485099792480469 0.30000001192092896 -0.2759000062942505
v -0.5555700063705444 0.5 0.2758989930152893
v -0.44175300002098083 0.5 0.12191499769687653
v -0.5526930093765259 0.5 0
v -0.647674024105072 0.5 0.1515360027551651
v 0 0.5 0.44442999362945557
v 0.19776199758052826 0.5 0.4252150058746338
v 0.1627510040998459 0.5 0.24553899466991425
v 0 0.5 0.24553899466991425
v 0.41920000314712524 0.5 -0.36830899119377136
v 0.19776199758052826 0.5 -0.4252150058746338
v 0.1627510040998459 0.5 -0.24553999304771423
v 0.36223098635673523 0.5 -0.24553999304771423
v 0.9240720272064209 0.5 -0.1515370011329651
v 0.7113459706306458 0.5 0
v 0.9240729808807373 0.5 0.1515360027551651
v 1.2000000476837158 0.5 0
v 0 0.5 0
v -0.10000000149011612 0.5 0
v -0.1274549961090088 0.5 0.12276999652385712
v 0 0.5 0.12276999652385712
v 0 0.5 -0.44442999362945557
v -0.19508999586105347 0.5 -0.4252150058746338
v -0.15490999817848206 0.5 -0.24553999304771423
v 0 0.5 -0.24553999304771423
v 0.41920000314712524 0.5 0.36830899119377136
v 0.36223098635673523 0.5 0.24553899466991425
v -0.38268399238586426 0.5 -0.36830899119377136
v -0.3217889964580536 0.5 -0.24553999304771423
v -0.20000000298023224 0.5 0
v -0.2608940005302429 0.5 0.12276999652385712
v 0 0.5 -0.12276999652385712
v 0.1062759980559349 0.5 0
v 0.13602499663829803 0.5 -0.12276999652385712
v -0.2608950138092041 0.5 -0.12276999652385712
v -0.1274549961090088 0.5 -0.12276999652385712
v -0.351639986038208 0.5 0
v 0.224139004945755 0.5 0
v 0.29661598801612854 0.5 -0.12276999652385712
v 0.29661598801612854 0.5 0.12276999652385712
v 0.41685399413108826 0.5 0
v -0.5555700063705444 0.5 -0.2758989930152893
v -0.44175300002098083 0.5 -0.12191499769687653
v 0.5290459990501404 0.5 -0.12191499769687653
v 0.5290459990501404 0.5 0.12191499769687653
v 0.6485099792480469 0.5 0.2758989930152893
v -0.15490999817848206 0.5 0.24553899466991425
v -0.19508999586105347 0.5 0.4252150058746338
v -0.3217889964580536 0.5 0.24553899466991425
v -0.38268300890922546 0.5 0.36830899119377136
v 0.13602499663829803 0.5 0.12276999652385712
v -0.647674024105072 0.5 -0.1515360027551651
v -0.699999988079071 0.5 0
v 0.6485099792480469 0.5 -0.2759000062942505
usemtl targetSurfaces0
f 1 4 3 2
f 1 54 55 4
f 1 49 70 54
f 1 2 48 49
f 2 3 42 36
f 2 36 30 48
f 3 4 52 51
f 3 51 41 42
f 4 55 72 52
f 5 8 7 6
f 5 6 57 56
f 5 56 69 47
f 5 47 46 8
f 6 25 65 57
f 6 7 26 25
f 7 50 39 26
f 7 8 20 50
f 8 46 19 20
f 9 12 11 10
f 9 10 59 58
f 9 58 73 53
f 9 53 43 12
f 10 21 63 59
f 10 11 24 21
f 11 33 31 24
f 11 12 38 33
f 12 43 40 38
f 13 16 15 14
f 13 60 62 16
f 13 53 73 60
f 13 14 43 53
f 14 15 45 44
f 14 44 40 43
f 15 16 62 61
f 15 61 68 45
f 17 20 19 18
f 17 31 33 32
f 17 18 35 31
f 17 32 50 20
f 18 19 30 29
f 18 29 34 35
f 19 46 48 30
f 21 24 23 22
f 21 22 64 63
f 22 27 66 64
f 22 23 28 27
f 23 35 34 28
f 23 24 31 35
f 25 45 68 65
f 25 26 44 45
f 26 39 40 44
f 27 41 67 66
f 27 28 42 41
f 28 34 36 42
f 29 30 36 34
f 32 33 38 37
f 32 37 39 50
f 37 38 40 39
f 41 51 71 67
f 46 47 49 48
f 47 69 70 49
f 51 52 72 71
f 54 74 75 55
f 54 70 90 74
f 55 75 92 72
f 56 57 77 76
f 56 76 89 69
f 57 65 85 77
f 58 59 79 78
f 58 78 93 73
f 59 63 83 79
f 60 80 82 62
f 60 73 93 80
f 61 62 82 81
f 61 81 88 68
f 63 64 84 83
f 64 66 86 84
f 65 68 88 85
f 66 67 87 86
f 67 71 91 87
f 69 89 90 70
f 71 72 92 91
f 74 94 95 75
f 74 90 110 94
f 75 95 112 92
f 76 77 97 96
f 76 96 109 89
f 77 85 105 97
f 78 79 99 98
f 78 98 113 93
f 79 83 103 99
f 80 100 102 82
f 80 93 113 100
f 81 82 102 101
f 81 101 108 88
f 83 84 104 103
f 84 86 106 104
f 85 88 108 105
f 86 87 107 106
f 87 91 111 107
f 89 109 110 90
f 91 92 112 111
f 94 114 115 95
f 94 110 130 114
f 95 115 132 112
f 96 97 117 116
f 96 116 129 109
f 97 105 125 117
f 98 99 119 118
f 98 118 133 113
f 99 103 123 119
f 100 120 122 102
f 100 113 133 120
f 101 102 122 121
f 101 121 128 108
f 103 104 124 123
f 104 106 126 124
f 105 108 128 125
f 106 107 127 126
f 107 111 131 127
f 109 129 130 110
f 111 112 132 131
f 114 134 137 115
f 114 130 182 134
f 115 137 185 132
f 116 117 139 138
f 116 138 180 129
f 117 125 158 139
f 118 119 143 142
f 118 142 186 133
f 119 123 154 143
f 120 146 149 122
f 120 133 186 146
f 121 122 149 148
f 121 148 178 128
f 123 124 155 154
f 124 126 160 155
f 125 128 178 158
f 126 127 174 160
f 127 131 184 174
f 129 180 182 130
f 131 132 185 184
f 134 135 136 137
f 134 182 181 135
f 135 169 175 136
f 135 181 163 169
f 136 184 185 137
f 136 175 174 184
f 138 139 140 141
f 138 141 179 180
f 139 158 159 140
f 140 159 172 183
f 140 183 153 141
f 141 153 152 179
f 142 143 144 145
f 142 145 176 186
f 143 154 157 144
f 144 157 164 166
f 144 166 171 145
f 145 171 173 176
f 146 147 148 149
f 146 186 176 147
f 147 177 178 148
f 147 176 173 177
f 150 151 152 153
f 150 165 166 164
f 150 164 168 151
f 150 153 183 165
f 151 162 163 152
f 151 168 167 162
f 152 163 181 179
f 154 155 156 157
f 155 160 161 156
f 156 161 167 168
f 156 168 164 157
f 158 178 177 159
f 159 177 173 172
f 160 174 175 161
f 161 175 169 167
f 162 167 169 163
f 165 170 171 166
f 165 183 172 170
f 170 172 173 171
f 179 181 182 180
