# Blender 4.2.3 LTS
# www.blender.org
o Plane
v -1.000000 -1.000000 0.000000
v 1.000000 -1.000000 0.000000
v -1.000000 1.000000 0.000000
v 1.000000 1.000000 0.000000
v 0.297480 0.314748 0.000000
v -0.471133 -0.183168 0.000000
v -0.160193 -0.483812 0.000000
v -1.000000 -0.369940 0.000000
v -0.296736 -1.000000 0.000000
v 1.000000 0.219115 0.000000
v 0.131951 1.000000 0.000000
v -0.158933 -0.000819 0.000000
v -0.002547 -0.152028 0.000000
v 1.000000 -0.283909 0.000000
v -0.160193 -0.183168 0.000000
v 0.404402 -0.546967 0.000000
v -0.480163 0.585347 0.000000
v 0.524342 0.536034 0.000000
v 0.807197 0.216656 0.000000
v 0.584631 -0.119256 0.000000
v -0.220244 0.378020 0.000000
v 0.150396 0.811514 0.000000
v -1.000000 0.315030 0.000000
v -0.063937 -0.494579 0.000000
v -0.579477 -0.221431 0.000000
v 0.053362 -0.292874 0.000000
v -0.192032 -0.604174 0.000000
v -0.258117 0.078296 0.000000
v -0.256503 -0.276843 0.000000
v 0.424956 0.439091 0.000000
v 0.117355 -0.199557 0.000000
v 0.540167 1.000000 0.000000
v 1.000000 0.534975 0.000000
v 0.351632 -1.000000 0.000000
vn -0.0000 -0.0000 1.0000
s 0
f 18//1 21//1 28//1 30//1
f 22//1 11//1 17//1 21//1
f 14//1 20//1 16//1
f 13//1 7//1 24//1 26//1
f 1//1 9//1 27//1 29//1
f 8//1 1//1 29//1 25//1
f 17//1 11//1 3//1
f 7//1 27//1 24//1
f 6//1 12//1 28//1 25//1
f 19//1 18//1 20//1
f 14//1 10//1 19//1
f 21//1 17//1 23//1 8//1
f 17//1 3//1 23//1
f 32//1 11//1 22//1 18//1
f 21//1 18//1 22//1
f 18//1 30//1 31//1 20//1
f 27//1 9//1 16//1 24//1
f 27//1 7//1 15//1 29//1
f 28//1 21//1 8//1 25//1
f 31//1 13//1 26//1
f 29//1 15//1 6//1 25//1
f 24//1 16//1 26//1
f 30//1 5//1 13//1 31//1
f 28//1 12//1 5//1 30//1
f 20//1 31//1 26//1 16//1
f 4//1 32//1 18//1 33//1
f 18//1 19//1 10//1 33//1
f 16//1 9//1 34//1
f 14//1 16//1 34//1 2//1
f 19//1 20//1 14//1
